<?xml version="1.0" encoding="utf-8"?>
<!-- Generator: Adobe Illustrator 25.0.0, SVG Export Plug-In . SVG Version: 6.00 Build 0)  -->
<svg version="1.1" id="Layer_1" xmlns="http://www.w3.org/2000/svg" xmlns:xlink="http://www.w3.org/1999/xlink" x="0px" y="0px"
	 viewBox="0 0 30 30" style="enable-background:new 0 0 30 30;" xml:space="preserve">
<style type="text/css">
	.st0{fill:#164373;}
	.st1{font-family:'MyriadPro-Regular';}
	.st2{font-size:22.8965px;}
	.st3{fill-rule:evenodd;clip-rule:evenodd;fill:#792A8D;}
	.st4{fill-rule:evenodd;clip-rule:evenodd;fill:#310A3D;}
	.st5{fill:#262A2E;}
	.st6{fill:none;stroke:#D9B884;stroke-width:0.3464;stroke-linecap:round;stroke-linejoin:round;stroke-miterlimit:10;}
</style>
<text transform="matrix(0.809 0 0 1 0.4443 20.8878)" class="st0 st1 st2">SKL</text>
<rect x="0.4" y="0.6" class="st3" width="28.8" height="5"/>
<rect x="0.4" y="20.8" class="st4" width="28.8" height="8.8"/>
<g>
	<polygon class="st5" points="42.7,43.4 -16.7,43.4 -16.7,-16 42.7,-16 42.7,43.4 	"/>
	<path class="st6" d="M16.3,12.3l2.4-0.5l0.1,0.7l-0.4,0.6C17.2,13,16.3,12.3,16.3,12.3L16.3,12.3z M20.4,11.5h0.4
		c0,0,0.1,0.5,0.1,0.8c0.1,0.3-0.5,0.5-0.5,0.5s0.1-0.5,0.1-0.6C20.6,12.1,20.4,11.5,20.4,11.5L20.4,11.5z M1.7,20.6
		c-1.1,2.3,0.6,5,3.2,5l0,0c2,0,3.5-1.6,3.5-3.5c0-1.5,0.1-2.9,0.4-3c1.7-0.1,4.5-0.4,5.3-0.4h3.6c0.7,0,1.3-0.2,1.8-0.7l5.6-4.9
		l4.1-4.6c0,0,0.1-0.8-1.2-0.3c-1.3,0.6-2.6,2.2-2.6,2.2s0.1-1.9,0-2.1c-0.1-0.3-1.3-2.7-1.8-2.9c-0.5-0.3-0.9,1.1-0.6,2
		c0.3,0.9,0.7,2,0.7,2l-0.5,2.6l-0.4-1.3c0,0,0.4-0.3,0.4-0.6c0-0.3-0.2-0.7-0.7-0.8c-0.2,0-0.3-0.1-0.3-0.1C22,9,21.6,8,21.2,7.7
		C20.7,7.4,19.3,6,19,6c-0.3,0-0.5,0.5-0.1,1.5c0.4,1,1.2,1.8,1.2,1.8l-0.6,0.1c0,0-1.6-2-2-2S16.9,8,17.3,8.7c0.4,0.6,0.6,1,0.6,1
		s-3.4,0.5-4.3,0.5c-0.9,0-4,0.9-4.8,1.5c-0.8,0.5-3.2,2-3.8,2.6C4.4,14.8,3,17.8,1.7,20.6L1.7,20.6z M17.8,9.7l0.7,1l0.2,1.8
		l-1.3,1.8c0,0-6.3-0.7-8.9,1.1 M19,16.5c0,0,1.6-3.8,1.6-4.3c0-0.5-0.6-2.5-1-2.9 M22.1,9.2l0.6,1.4l0.4,1.3l0.1,0.4
		c0.1,0.2,0,0.4-0.1,0.6l-1.5,2.5 M25.3,10.3V12 M20.2,9.3l0.4,0.6l0.2,1.6"/>
</g>
</svg>
